<?xml version="1.0" encoding="utf-8"?>
<!-- Generator: Adobe Illustrator 28.0.0, SVG Export Plug-In . SVG Version: 6.00 Build 0)  -->
<svg version="1.1" id="Calque_1" xmlns="http://www.w3.org/2000/svg" xmlns:xlink="http://www.w3.org/1999/xlink" x="0px" y="0px"
	 viewBox="0 0 445.8 426.8" style="enable-background:new 0 0 445.8 426.8;" xml:space="preserve">
<g transform="translate(-34.973061,472.953199) scale(0.100000,-0.100000)">
	<path d="M2208,4454c-340-261-358-277-358-307c1-18,13-118,28-224l27-192l80-60l80-60l5,76l5,76l73,27l72,28v-93c0-92,0-93-27-104
		c-16-6-39-20-52-30l-24-18l80-61l80-61l-13-53c-45-171-97-527-138-943c-49-491-50-504-36-868c7-186,11-340,9-341c-2-2-30-7-61-11
		l-58-7v34c0,121,77,1089,110,1383c30,262,67,513,95,649c21,97,23,122,13,132c-24,23-553,414-560,414c-5,0-8-598-8-1329V1182l-22-6
		c-13-3-31-6-40-6c-17,0-18,70-18,1335c0,734-3,1335-7,1335c-7,0-537-390-556-409c-5-5,0-49,12-102c42-198,85-560,116-969
		c19-259,53-937,57-1138l3-154l-100-39c-241-95-422-208-562-348c-48-48-105-117-126-152l-37-64l2227-3c1224-1,2228,0,2231,2
		c2,3-10,33-28,68c-62,122-190,249-353,350c-89,56-279,143-364,169l-43,12v246c1,730,46,1481,106,1737c8,37,11,70,7,74
		s-113,93-240,199l-233,191V2336V1161l-37,6c-21,3-39,7-40,8c-2,1-3,524-3,1163c0,760-4,1162-10,1162s-130-80-276-177l-266-178l5-45
		c3-25,12-103,21-175c21-173,53-688,65-1060c6-165,14-376,17-469c6-157,5-169-11-163c-9,4-29,7-44,7h-28l-8,428
		c-4,235-10,470-14,522l-6,95l-42,13l-43,14v109v109h35c42,0,41-11,20,237c-16,194-20,226-42,337c-9,47-11,81-6,85c6,3,33,21,61,40
		c29,18,50,37,47,42c-3,4-21,11-40,15c-20,3-38,10-41,15c-7,11,26,189,35,189c4,0,35-9,69-21c57-19,61-22,57-47c-12-80-14-112-8-112
		c5,0,20,10,35,23c27,22,28,28,68,332c23,171,47,353,55,405s11,98,7,102c-26,25-638,508-644,508c-5,0-8-769-8-1710V1260h-30h-30
		v1735c0,954-3,1735-7,1735C2568,4729,2404,4605,2208,4454z M2488,4188l-3-123l-70-27c-38-15-73-27-77-28c-5,0-8,52-8,115v116l73,33
		c39,19,76,35,80,35C2487,4310,2489,4255,2488,4188z M2908,4110c3-129,11-123-95-64l-63,35v114v114l78-44l77-44L2908,4110z
		 M3205,4073c-2-59-19-184-24-188c-5-2-41,9-82,24c-84,33-77,14-64,173l7,76l81-38C3168,4099,3205,4078,3205,4073z M2204,4050
		c9-47,16-92,16-100c0-13-28-27-131-65c-14-5-21,10-40,89c-12,53-21,97-18,100c16,14,145,73,150,68C2184,4138,2195,4097,2204,4050z
		 M2490,3850v-120l-66-30c-37-16-68-30-70-30s-4,51-4,114v115l63,35c34,20,65,36,70,36C2487,3970,2490,3916,2490,3850z M2820,3940
		l60-30v-111c0-85-3-110-12-106c-7,3-37,15-65,27l-53,23v113c0,63,2,114,5,114S2787,3956,2820,3940z M3102,3813c52-21,68-33,68-48
		c0-37-23-190-30-198c-3-4-35,4-71,17c-72,28-66,9-54,169c4,48,10,87,13,87C3032,3840,3065,3828,3102,3813z M2828,3593l52-34v-110
		v-111l-62,35l-63,35l-3,117c-2,93,0,115,10,109C2769,3630,2799,3611,2828,3593z M2490,3512v-118l-52-19c-29-10-59-20-65-23
		c-10-3-13,23-13,112v117l53,24c28,14,58,25,65,25C2487,3630,2490,3600,2490,3512z M1808,3485l42-17v-84v-84l-27,6
		c-85,21-78,11-81,113c-2,73,0,92,10,88C1759,3504,1784,3494,1808,3485z M2055,3374c40-22,64-42,61-49c-2-7-7-33-11-57
		c-11-72-15-75-79-55l-56,18v83c0,72,4,96,16,96C1988,3410,2019,3394,2055,3374z M2868,3136c2-70-1-106-8-106c-6,0-33,11-60,25
		l-50,25v115v114l58-33l57-34L2868,3136z M2490,3179v-120l-55-25c-31-13-60-24-65-24c-6,0-10,47-10,115v116l63,29c34,17,63,30,65,30
		C2489,3300,2490,3246,2490,3179z M1850,3131v-83l-26,6c-15,4-39,10-55,13l-29,6v92v93l55-21l55-22V3131z M3775,3188l45-22v-73v-73
		l-47,19l-48,19l-3,76c-2,42-1,76,2,76S3750,3200,3775,3188z M2042,3133l30-6l-4-74c-3-40-8-76-11-79s-26,2-51,11l-46,18v74v75l26-6
		C2001,3142,2026,3136,2042,3133z M3980,3085l50-25v-65c0-36-2-65-5-65s-30,14-60,31l-55,31v59c0,34,4,59,10,59S3953,3099,3980,3085
		z M1817,2974l33-14v-85c0-63-3-83-12-80c-7,2-32,9-55,15l-43,11v90C1740,3012,1735,3008,1817,2974z M3793,2973c26-13,27-17,27-83
		c0-39-3-70-7-70s-27,7-50,16l-43,17v74C3720,3009,3721,3010,3793,2973z M2818,2918l32-27v-111v-110l-50,37l-50,37v114
		C2750,2984,2745,2980,2818,2918z M2490,2841v-120l-56-25c-31-14-58-26-60-26s-4,52-4,115v115l53,30c28,16,55,30,60,30
		C2487,2960,2490,2906,2490,2841z M2006,2895l42-16l-5-87c-3-48-7-88-8-90c-2-2-27,9-55,23l-53,27l7,60c3,34,6,72,6,86
		c0,15,5,22,13,19C1959,2914,1984,2905,2006,2895z M4010,2784c0-36-3-64-8-62c-4,2-31,16-60,32l-52,29v64v63l60-30l60-30V2784z
		 M2289,2645c-3-2-28-7-57-11l-52-7v94v94l48,27l47,27l9-110C2289,2699,2291,2648,2289,2645z M3820,2679c0-78-1-79-72-42
		c-27,13-28,17-28,88v75l50-25l50-25V2679z M1845,2710c3,0,5-39,5-86v-86l-26,6c-15,4-39,10-55,13l-29,6v93v94l50-20
		C1818,2719,1843,2710,1845,2710z M3955,2673l55-27v-68v-68l-56,25c-31,14-58,25-60,25s-4,32-4,70c0,39,2,70,5,70
		C3897,2700,3924,2688,3955,2673z M1989,2650c24,0,24-1,18-76c-3-42-8-78-11-81c-2-3-21,0-40,7l-36,12v75c0,73,1,75,23,69
		C1955,2653,1976,2650,1989,2650z M2850,2452v-114l-27,18c-77,49-72,38-73,167v117l50-37l50-37V2452z M2490,2502v-118l-37-19
		c-21-11-41-21-45-23c-5-2-8,50-8,115v118l38,22c20,12,40,22,45,23C2487,2620,2490,2567,2490,2502z M3775,2568l45-22v-73v-73l-47,19
		l-48,19l-3,76c-2,42-1,76,2,76S3750,2580,3775,2568z M2306,2439c6-52,9-97,7-101c-2-5-24-8-49-8h-44v94c0,94,0,94,28,104
		c15,6,32,9,37,8C2291,2535,2300,2491,2306,2439z M1804,2470l46-21v-79c0-50-4-80-11-80c-5,0-30,5-55,11l-44,11v89c0,49,4,89,9,89
		S1778,2481,1804,2470z M3940,2460l40-20v-66c0-36-3-64-7-62c-86,41-83,37-83,105c0,35,2,63,5,63S3919,2471,3940,2460z M2000,2329
		v-91l-31,6c-17,3-40,6-50,6c-17,0-19,9-19,85v85h50h50V2329z M3780,2360l40-20v-70c0-39-3-70-7-70s-27,7-50,16l-43,17v73
		c0,45,4,74,10,74S3759,2371,3780,2360z M2796,2279l34-21v-129c0-71-4-129-9-129c-4,0-22,5-40,11l-31,11v139c0,76,3,139,6,139
		C2760,2300,2778,2291,2796,2279z M2486,2054c-3-7-23-22-46-34l-40-20v117v118l43,27l42,27l3-111C2489,2116,2489,2061,2486,2054z
		 M3946,2244c22-6,24-11,24-75c0-38-2-69-5-69c-2,0-20,8-40,17c-35,17-35,17-35,81c0,55,2,63,16,58C3915,2253,3933,2247,3946,2244z
		 M1803,2216l47-19v-84v-83l-27,6c-85,21-78,11-81,113c-1,51,1,91,5,89C1752,2237,1776,2227,1803,2216z M2320,2111v-119l-42-4
		c-24-3-46-3-50-1c-5,2-8,53-8,113v110l28,6c15,3,32,7,37,9C2318,2236,2320,2230,2320,2111z M2978,2205c21-6,22-11,22-117
		c0-96-2-109-16-104c-9,3-27,6-40,6h-24v116C2920,2232,2915,2223,2978,2205z M1950,2110v-80h-35h-35v80v80h35h35V2110z M3820,2063
		c0-40-2-73-4-73s-25,9-50,20l-46,19v75v75l50-22l50-22V2063z M3946,2024c22-6,24-11,24-75c0-38-2-69-5-69c-2,0-20,8-40,17
		c-35,17-35,17-35,81c0,55,2,63,16,58C3915,2033,3933,2027,3946,2024z M1848,1861c3-89,5-87-64-70l-44,11v94v93l53-23l52-23
		L1848,1861z M3775,1948l45-22v-72v-72l-47,18l-48,18l-3,76c-2,42-1,76,2,76S3750,1960,3775,1948z M2490,1830c0-130,2-124-64-150
		l-26-10v118v117l38,22c20,12,40,22,45,23C2487,1950,2490,1896,2490,1830z M1950,1855v-75h-35h-35v75v75h35h35V1855z M2826,1890
		c2,0,4-49,4-110c0-60-4-110-9-110c-4,0-22,5-40,11l-31,11v114v114l36-15C2806,1897,2824,1890,2826,1890z M2988,1782
		c1-62-1-112-6-112s-23,5-41,11l-31,11v113v114l38-13l37-13L2988,1782z M2320,1785v-105h-40h-40v105v105h40h40V1785z M3934,1805
		l36-15v-65c0-36-2-65-5-65c-2,0-20,8-40,17c-35,17-35,17-35,80c0,35,2,63,4,63S3914,1813,3934,1805z M3780,1740l40-20v-70
		c0-39-3-70-7-70s-27,7-50,16l-43,17v73c0,45,4,74,10,74S3759,1751,3780,1740z M1808,1705l42-17v-84c0-62-3-82-12-79
		c-7,2-32,9-55,15l-43,11v90c0,69,3,90,13,86C1759,1724,1784,1714,1808,1705z M1950,1600v-80h-35h-35v80v80h35h35V1600z M3958,1590
		c21,0,22-4,22-71c0-62-2-70-17-65c-10,3-30,8-45,12c-27,6-28,9-28,71c0,63,1,65,23,59C3925,1593,3945,1590,3958,1590z M3808,1523
		c8-3,12-29,12-79c0-41-2-74-4-74s-25,9-50,20l-46,19v76v75l38-16C3778,1535,3801,1526,3808,1523z"/>
</g>
</svg>
